<?xml version="1.0" encoding="UTF-8" standalone="no"?>
<!DOCTYPE svg PUBLIC "-//W3C//DTD SVG 1.1//EN" "http://www.w3.org/Graphics/SVG/1.1/DTD/svg11.dtd">
<svg xmlns:xl="http://www.w3.org/1999/xlink" xmlns="http://www.w3.org/2000/svg"
  xmlns:dc="http://purl.org/dc/elements/1.1/" version="1.1" viewBox="0 0 116.259 66.434" width="116.259"
  height="66.434">
  <path
    d="M 7105427e-21 7105427e-21 L 7105427e-21 29.895 L 36.264 29.895 C 37.904 19.082 47.193 11.086 58.129 11.072 C 69.07 11.082 78.364 19.078 80.006 29.895 L 116.259 29.895 L 116.259 7105427e-21 Z M 7105427e-21 36.538 L 7105427e-21 66.434 L 116.259 66.434 L 116.259 36.538 L 79.995 36.538 C 78.355 47.351 69.066 55.348 58.129 55.361 C 47.189 55.352 37.894 47.355 36.253 36.538 Z"
    fill="white" />
  <path
    d="M 58.12951 17.79317 C 49.61117 17.79317 42.70567 24.69867 42.70567 33.217 C 42.70567 41.73533 49.61117 48.64083 58.12951 48.64083 C 59.17194 48.64083 60.19015 48.53713 61.17459 48.33999 C 60.77779 48.1502 60.73449 46.72635 61.12687 45.91455 C 61.56368 45.01081 62.93435 42.72133 61.57874 41.95316 C 60.22313 41.18498 60.59969 40.83854 59.77126 39.94987 C 58.94283 39.06119 59.28163 38.92759 59.22902 38.69969 C 59.04827 37.91645 60.02732 36.74159 60.07251 36.62109 C 60.11769 36.50059 60.11769 36.04873 60.10263 35.91316 C 60.08757 35.7776 59.48512 35.4161 59.33449 35.40104 C 59.18387 35.38598 59.10856 35.64203 58.89768 35.6571 C 58.68681 35.67216 57.76801 35.09979 57.5722 34.94917 C 57.37639 34.79855 57.28602 34.43705 57.01489 34.16593 C 56.74377 33.89481 56.71365 34.10568 56.2919 33.93999 C 55.87016 33.77431 54.51455 33.27725 53.47524 32.85551 C 52.43594 32.43376 52.34557 31.84255 52.33051 31.42458 C 52.31544 31.00661 51.69789 30.40035 51.40825 29.96353 C 51.11869 29.52673 51.06527 28.92423 50.95983 29.0598 C 50.8544 29.19536 51.50208 30.7769 51.39664 30.82209 C 51.29121 30.86728 51.06527 30.38528 50.76403 29.99366 C 50.46278 29.60204 51.08033 29.81291 50.11634 27.91506 C 49.15235 26.01721 50.41759 25.04944 50.47784 24.0591 C 50.53809 23.06876 51.29121 24.4206 50.89959 23.78798 C 50.50796 23.15536 50.92971 21.82988 50.62846 21.34788 C 50.32722 20.86589 48.61011 21.89013 48.61011 21.89013 C 48.6553 21.42319 50.11634 20.62489 51.17071 19.88683 C 52.22507 19.14878 52.86898 19.72115 53.71624 19.99227 C 54.56351 20.26339 54.61998 20.17302 54.3338 19.9019 C 54.04761 19.63078 54.4543 19.49521 55.11704 19.60065 C 55.77978 19.70609 55.96053 20.50439 56.96971 20.42908 C 57.97888 20.35377 57.07514 20.62489 57.2107 20.88095 C 57.34626 21.13701 57.06008 21.10688 56.39734 21.55875 C 55.73459 22.01063 56.4124 22.01063 57.58726 22.86918 C 58.76213 23.72773 58.40063 22.29681 58.28013 21.66419 C 58.15963 21.03157 59.13868 21.52863 59.13868 21.52863 C 59.86167 22.01063 59.72808 21.55514 60.25526 21.72083 C 60.78244 21.88651 62.2114 23.09511 62.2114 23.09511 C 60.41898 24.07416 61.54866 24.1796 61.8499 24.40553 C 62.15115 24.63147 61.23235 25.06828 61.23235 25.06828 C 60.85579 24.69172 60.79554 25.08334 60.55454 25.2189 C 60.31354 25.35446 60.53948 25.7009 60.53948 25.7009 C 59.29308 25.89671 59.57549 27.20713 59.59055 27.52343 C 59.60561 27.83975 58.79225 28.32174 58.58138 28.77361 C 58.3705 29.22548 59.12362 30.20453 58.732 30.26478 C 58.34038 30.32503 57.94876 28.78868 55.84003 29.36104 C 55.20428 29.53363 53.79155 30.26478 54.54467 31.75596 C 55.29779 33.24713 56.54796 31.33421 56.96971 31.54508 C 57.39145 31.75596 56.84921 32.70488 56.93958 32.71994 C 57.02996 32.73501 58.12951 32.76136 58.18976 34.04543 C 58.25 35.3295 59.86167 35.22029 60.20811 35.25042 C 60.55454 35.28054 61.71434 34.30149 61.88003 34.2563 C 62.04571 34.21112 62.70846 33.65381 64.15444 34.48223 C 65.60043 35.31067 66.33848 35.19017 66.83553 35.5366 C 67.33259 35.88303 66.98616 36.5759 67.45309 36.80183 C 67.92003 37.02777 69.78775 36.72653 70.25469 37.4947 C 70.72162 38.26288 68.32671 42.11884 67.57359 42.54059 C 66.82047 42.96233 66.47404 43.92633 65.72092 44.54388 C 64.96781 45.16143 63.91344 45.92583 62.91933 46.51704 C 62.03937 47.04029 61.88103 47.97769 61.48905 48.27359 C 68.39182 46.74017 73.55333 40.58148 73.55333 33.217 C 73.55333 24.69867 66.64784 17.79317 58.12951 17.79317 Z M 61.74447 32.26807 C 61.53359 32.32833 61.09679 32.71994 60.02736 32.08733 C 58.95793 31.45471 58.21988 31.57521 58.12951 31.46977 C 58.12951 31.46977 58.03913 31.21371 58.50606 31.16853 C 59.46487 31.0757 60.67504 32.0572 60.94616 32.07226 C 61.21728 32.08733 61.35285 31.80114 61.83484 31.95647 C 62.31683 32.11163 61.95534 32.20783 61.74447 32.26807 Z M 56.69858 19.32953 C 56.59355 19.25313 56.78558 19.16517 56.90006 19.01322 C 56.96613 18.92542 56.91713 18.77965 56.99983 18.69691 C 57.22577 18.47098 58.34038 18.15467 58.12243 18.77223 C 57.90457 19.38978 56.86427 19.45003 56.69858 19.32953 Z M 59.39474 21.28763 C 59.01818 21.27257 58.1318 21.1789 58.29519 21.01651 C 58.93159 20.38389 58.05419 20.20314 57.51195 20.15796 C 56.96971 20.11277 56.74377 19.81153 57.01489 19.7814 C 57.28602 19.75127 58.3705 19.79646 58.55125 19.94708 C 58.732 20.09771 59.71105 20.48933 59.7713 20.77551 C 59.83155 21.0617 59.7713 21.3027 59.39474 21.28763 Z M 62.66327 21.1822 C 62.36202 21.42319 60.84615 20.31746 60.55454 20.06758 C 59.28931 18.9831 58.6115 19.34459 58.3458 19.16384 C 58.08002 18.9831 58.17469 18.7421 58.58138 18.3806 C 58.98806 18.01911 60.1328 18.5011 60.79554 18.57641 C 61.45828 18.65173 62.22646 19.16384 62.24153 19.7726 C 62.25659 20.38133 62.96452 20.9412 62.66327 21.1822 Z"
    fill="white" />
</svg>